<svg width="512" height="512" viewBox="0 0 512 512" fill="none" xmlns="http://www.w3.org/2000/svg">
<rect width="512" height="512" rx="64" fill="url(#gradient0_linear_1_1)"/>
<path d="M256 128C197.609 128 149.333 176.276 149.333 234.667V277.333C149.333 335.724 197.609 384 256 384C314.391 384 362.667 335.724 362.667 277.333V234.667C362.667 176.276 314.391 128 256 128Z" fill="white"/>
<path d="M224 192C224 177.272 236.272 165 251 165H282.667C297.395 165 309.667 177.272 309.667 192V213.333C309.667 228.061 297.395 240.333 282.667 240.333H251C236.272 240.333 224 228.061 224 213.333V192Z" fill="#8b5cf6"/>
<path d="M224 277.333C224 262.605 236.272 250.333 251 250.333H282.667C297.395 250.333 309.667 262.605 309.667 277.333V298.667C309.667 313.395 297.395 325.667 282.667 325.667H251C236.272 325.667 224 313.395 224 298.667V277.333Z" fill="#8b5cf6"/>
<defs>
<linearGradient id="gradient0_linear_1_1" x1="0" y1="0" x2="512" y2="512" gradientUnits="userSpaceOnUse">
<stop stop-color="#1f2937"/>
<stop offset="0.5" stop-color="#6d28cd"/>
<stop offset="1" stop-color="#1f2937"/>
</linearGradient>
</defs>
</svg>